<svg width="16" height="16" viewBox="0 0 16 16" fill="none" xmlns="http://www.w3.org/2000/svg">
<path d="M9.15569 14.6928C8.95879 14.422 8.86428 14.0947 8.87216 13.711C8.88003 13.3274 8.98275 13.0001 9.1803 12.7293L11.9615 8.90371H0.984486C0.705549 8.90371 0.471571 8.77371 0.28255 8.51371C0.0935294 8.25371 -0.000652915 7.93231 3.40651e-06 7.54953C3.40651e-06 7.16585 0.0945138 6.84401 0.283534 6.58401C0.472555 6.324 0.706205 6.19446 0.984486 6.19536H11.9615L9.15569 2.33595C8.95879 2.06512 8.86035 1.74328 8.86035 1.37043C8.86035 0.997576 8.95879 0.676185 9.15569 0.406253C9.35259 0.135417 9.58657 0 9.85763 0C10.1287 0 10.3623 0.135417 10.5586 0.406253L15.0626 6.60161C15.161 6.73703 15.2309 6.88373 15.2723 7.04172C15.3136 7.19971 15.334 7.36898 15.3333 7.54953C15.3333 7.73009 15.3126 7.89936 15.2713 8.05735C15.2299 8.21534 15.1604 8.36204 15.0626 8.49746L10.534 14.7267C10.3535 14.9749 10.128 15.0991 9.85763 15.0991C9.58722 15.0991 9.35324 14.9637 9.15569 14.6928Z" fill="black"/>
</svg>
