<svg width="16" height="16" viewBox="0 0 16 16" fill="none" xmlns="http://www.w3.org/2000/svg">
<path d="M6.17732 14.6928C6.37421 14.422 6.46872 14.0947 6.46085 13.711C6.45297 13.3274 6.35026 13.0001 6.15271 12.7293L3.37154 8.90371H14.3485C14.6275 8.90371 14.8614 8.77371 15.0505 8.51371C15.2395 8.25371 15.3337 7.93231 15.333 7.54953C15.333 7.16585 15.2385 6.84401 15.0495 6.58401C14.8605 6.324 14.6268 6.19445 14.3485 6.19536H3.37154L6.17732 2.33595C6.37421 2.06512 6.47266 1.74328 6.47266 1.37043C6.47266 0.997576 6.37421 0.676185 6.17732 0.406253C5.98042 0.135417 5.74644 0 5.47538 0C5.20432 0 4.97067 0.135417 4.77443 0.406253L0.270424 6.60161C0.171976 6.73703 0.102077 6.88373 0.0607281 7.04172C0.0193796 7.19971 -0.000966072 7.36898 -0.000309944 7.54953C-0.000309944 7.73009 0.0203657 7.89936 0.0617142 8.05735C0.103063 8.21534 0.172632 8.36204 0.270424 8.49746L4.79904 14.7267C4.97953 14.9749 5.20498 15.0991 5.47538 15.0991C5.74579 15.0991 5.97976 14.9636 6.17732 14.6928Z" fill="black"/>
</svg>
