<svg width="32" height="28" viewBox="0 0 32 28" fill="none" xmlns="http://www.w3.org/2000/svg">
<path d="M24.295 25.9996H7.70502C7.25763 26 6.82302 25.8559 6.47069 25.5904C6.11836 25.325 5.86867 24.9534 5.76155 24.5352L2.02951 10.1484C1.9931 10.0084 1.99034 9.86217 2.02146 9.72093C2.05259 9.5797 2.11676 9.44716 2.20911 9.3334C2.30145 9.21965 2.41953 9.12768 2.55436 9.06449C2.68919 9.0013 2.83721 8.96855 2.98717 8.96875H29.0128C29.1628 8.96855 29.3108 9.0013 29.4456 9.06449C29.5805 9.12768 29.6985 9.21965 29.7909 9.3334C29.8832 9.44716 29.9474 9.5797 29.9785 9.72093C30.0097 9.86217 30.0069 10.0084 29.9705 10.1484L26.2384 24.5352C26.1313 24.9534 25.8816 25.325 25.5293 25.5904C25.177 25.8559 24.7424 26 24.295 25.9996V25.9996Z" stroke="#151515" stroke-width="2.5" stroke-linecap="round" stroke-linejoin="round"/>
<path d="M12.9015 2L8.81738 8.96963" stroke="#151515" stroke-width="2.5" stroke-linecap="round" stroke-linejoin="round"/>
<path d="M18.6484 2L22.7466 8.96963" stroke="#151515" stroke-width="2.5" stroke-linecap="round" stroke-linejoin="round"/>
</svg>
