<svg width="41" height="32" viewBox="0 0 41 32" fill="none" xmlns="http://www.w3.org/2000/svg">
<path d="M40.0876 8.89543L37.643 2.9049C37.6012 2.80251 37.5368 2.71139 37.4548 2.63868C37.3727 2.56598 37.2753 2.51367 37.1701 2.48585L34.2318 1.70799C25.6293 -0.569376 14.5121 -0.569281 5.90992 1.70799L2.97154 2.48585C2.86638 2.51367 2.76895 2.56598 2.68691 2.63868C2.60487 2.71139 2.54043 2.80251 2.49866 2.9049L0.0541676 8.89543C-0.0131746 9.06038 -0.0178905 9.24503 0.040941 9.41333L1.01868 12.2089C1.07545 12.3713 1.18758 12.5075 1.33457 12.5925C1.48156 12.6775 1.65359 12.7056 1.81922 12.6717L11.1084 10.7747C11.2481 10.7462 11.3761 10.675 11.4753 10.5706C11.5745 10.4661 11.6404 10.3334 11.6642 10.19L12.4686 5.32594C16.8961 4.18994 23.2456 4.18994 27.6729 5.32594L28.4774 10.19C28.5011 10.3335 28.567 10.4663 28.6663 10.5707C28.7655 10.6751 28.8935 10.7463 29.0332 10.7748L38.3223 12.6718C38.4879 12.7056 38.6599 12.6774 38.8069 12.5924C38.9539 12.5075 39.066 12.3714 39.1229 12.209L40.1007 9.41343C40.1595 9.2451 40.1549 9.06043 40.0876 8.89543ZM2.13948 11.1412L1.63761 9.70624L10.6348 7.78606L10.3575 9.46295L2.13948 11.1412ZM11.6633 4.0568C11.5342 4.09314 11.418 4.16636 11.3283 4.26784C11.2385 4.36933 11.179 4.49486 11.1568 4.62969L10.8864 6.26453L1.8665 8.1896L3.66307 3.78707L6.263 3.09877C14.6509 0.878304 25.4906 0.878208 33.8788 3.09877L36.4788 3.78707L38.2754 8.1896L29.2554 6.26453L28.9851 4.62969C28.9628 4.49487 28.9033 4.36936 28.8136 4.26788C28.7238 4.1664 28.6076 4.09318 28.4785 4.0568C23.6852 2.70615 16.4564 2.70615 11.6633 4.0568ZM38.0022 11.1412L29.7843 9.46295L29.5069 7.78606L38.5041 9.70624L38.0022 11.1412Z" fill="#015ADE"/>
<path d="M33.4081 13.1186C33.3788 12.9842 33.3124 12.8612 33.2167 12.7643C33.121 12.6673 33 12.6005 32.8682 12.5717L28.0767 11.526L27.4734 7.51395C27.4479 7.34431 27.3638 7.18959 27.2362 7.07781C27.1086 6.96603 26.9461 6.90458 26.778 6.90458H24.9019V5.96398C24.9019 5.56724 24.587 5.2456 24.1984 5.2456C23.8097 5.2456 23.4948 5.56724 23.4948 5.96398V6.90458H16.647V5.96398C16.647 5.56724 16.3321 5.2456 15.9434 5.2456C15.5548 5.2456 15.2399 5.56724 15.2399 5.96398V6.90458H13.3638C13.1957 6.90458 13.0331 6.96603 12.9056 7.07781C12.778 7.18959 12.6939 7.34431 12.6684 7.51395L12.065 11.526L7.27358 12.5717C7.14175 12.6005 7.02078 12.6673 6.92508 12.7643C6.82937 12.8612 6.76295 12.9842 6.73372 13.1186L3.48025 28.0878C3.46917 28.1389 3.46357 28.1911 3.46355 28.2434V31.2816C3.46355 31.4721 3.53767 31.6549 3.66961 31.7896C3.80155 31.9243 3.9805 32 4.16709 32H35.9747C36.1613 32 36.3402 31.9243 36.4722 31.7896C36.6041 31.6549 36.6782 31.4721 36.6782 31.2816V28.2434C36.6782 28.1911 36.6726 28.1389 36.6615 28.0878L33.4081 13.1186ZM8.00958 13.8802L12.8338 12.8273C12.9734 12.7968 13.1006 12.7238 13.1986 12.6178C13.2965 12.5118 13.3606 12.3779 13.3822 12.2338L13.9676 8.34134H26.1743L26.7595 12.2338C26.7812 12.3779 26.8453 12.5118 26.9432 12.6178C27.0412 12.7238 27.1684 12.7968 27.3079 12.8273L32.1323 13.8802L35.098 27.5251H5.0439L8.00958 13.8802ZM11.8384 28.9618L10.9321 30.5632H9.86263L10.7689 28.9618H11.8384ZM13.4636 28.9618H28.7737L27.8674 30.5632H12.5573L13.4636 28.9618ZM4.87064 28.9618H9.14369L8.23744 30.5632H4.87064V28.9618ZM29.4926 30.5632L30.3988 28.9618H35.2711V30.5632H29.4926Z" fill="#015ADE"/>
<path d="M20.0709 26.1606C24.2348 26.1606 27.6223 22.7016 27.6223 18.45C27.6223 14.1983 24.2348 10.7393 20.0709 10.7393C15.907 10.7393 12.5195 14.1983 12.5195 18.45C12.5195 22.7016 15.907 26.1606 20.0709 26.1606ZM20.0709 12.1761C23.4589 12.1761 26.2152 14.9905 26.2152 18.45C26.2152 21.9094 23.4589 24.7238 20.0709 24.7238C16.6829 24.7238 13.9266 21.9094 13.9266 18.45C13.9266 14.9905 16.6829 12.1761 20.0709 12.1761Z" fill="#015ADE"/>
<path d="M20.0709 21.1847C21.5478 21.1847 22.7494 19.9578 22.7494 18.4497C22.7494 16.9416 21.5478 15.7147 20.0709 15.7147C18.5939 15.7147 17.3922 16.9416 17.3922 18.4497C17.3922 19.9578 18.5939 21.1847 20.0709 21.1847ZM20.0709 17.1514C20.772 17.1514 21.3423 17.7338 21.3423 18.4497C21.3423 19.1656 20.772 19.7479 20.0709 19.7479C19.3698 19.7479 18.7993 19.1656 18.7993 18.4497C18.7993 17.7339 19.3698 17.1514 20.0709 17.1514Z" fill="#015ADE"/>
</svg>
