<svg width="41" height="26" viewBox="0 0 41 26" fill="none" xmlns="http://www.w3.org/2000/svg">
<path d="M39.4543 0H0.68739C0.505083 0 0.330243 0.0732456 0.201332 0.203625C0.0724213 0.334003 0 0.510836 0 0.695219V25.3048C0 25.4892 0.0724213 25.666 0.201332 25.7964C0.330243 25.9268 0.505083 26 0.68739 26H39.4543C39.6366 26 39.8114 25.9268 39.9403 25.7964C40.0693 25.666 40.1417 25.4892 40.1417 25.3048V0.695219C40.1417 0.510836 40.0693 0.334003 39.9403 0.203625C39.8114 0.0732456 39.6366 0 39.4543 0ZM32.6928 15.0331C32.8003 15.5259 32.9115 16.0355 32.767 16.2882C32.6117 16.5596 32.1099 16.7173 31.6247 16.8699C31.2419 16.9902 30.8461 17.1147 30.4934 17.3212C30.1525 17.5206 29.8577 17.8001 29.5726 18.0704C29.1802 18.4426 28.8095 18.794 28.4745 18.794C28.1393 18.794 27.7686 18.4425 27.3763 18.0704C27.0912 17.8001 26.7964 17.5205 26.4556 17.3212C26.1028 17.1147 25.707 16.9903 25.3242 16.8699C24.839 16.7173 24.3372 16.5596 24.182 16.2882C24.0374 16.0355 24.1486 15.5259 24.2561 15.0331C24.3443 14.6285 24.4355 14.2103 24.4355 13.7821C24.4355 13.354 24.3443 12.9356 24.2561 12.5311C24.1486 12.0383 24.0374 11.5288 24.182 11.2759C24.3372 11.0046 24.839 10.8468 25.3242 10.6942C25.707 10.5739 26.1028 10.4494 26.4556 10.243C26.7964 10.0435 27.0912 9.76403 27.3763 9.49373C27.7686 9.12165 28.1393 8.77015 28.4745 8.77015C28.8095 8.77015 29.1803 9.12165 29.5726 9.49373C29.8577 9.76403 30.1525 10.0435 30.4934 10.243C30.8461 10.4493 31.2419 10.5738 31.6247 10.6941C32.1099 10.8467 32.6117 11.0045 32.7669 11.2758C32.9115 11.5286 32.8003 12.0381 32.6928 12.5309C32.6046 12.9354 32.5134 13.3537 32.5134 13.7819C32.5134 14.2102 32.6046 14.6286 32.6928 15.0331ZM30.7059 8.66076C30.6427 8.60237 30.5784 8.54156 30.513 8.47955C29.9963 7.98955 29.3533 7.3798 28.4745 7.3798C27.5956 7.3798 26.9526 7.98955 26.4359 8.47955C26.197 8.70609 25.9713 8.92013 25.7671 9.03961C25.5476 9.168 25.2409 9.26449 24.9161 9.36655C24.213 9.58763 23.4163 9.8381 22.992 10.5797C22.5798 11.3004 22.7571 12.1134 22.9137 12.8307C22.9893 13.1777 23.0608 13.5055 23.0608 13.7821C23.0608 14.0587 22.9893 14.3866 22.9137 14.7336C22.7779 15.3556 22.6272 16.0496 22.8582 16.693L20.0705 19.5464L2.33273 1.39044H37.8082L30.7059 8.66076ZM11.7421 13L1.37478 23.6116V2.38812L11.7421 13ZM12.7084 13.989L19.5815 21.0242C19.6454 21.0896 19.7215 21.1416 19.8055 21.177C19.8894 21.2125 19.9795 21.2308 20.0704 21.2308C20.1614 21.2308 20.2514 21.2125 20.3354 21.177C20.4193 21.1416 20.4955 21.0896 20.5594 21.0242L23.768 17.7398C24.1291 17.9494 24.5361 18.0781 24.9161 18.1976C25.2409 18.2997 25.5476 18.3962 25.7671 18.5245C25.9713 18.644 26.1969 18.8581 26.4359 19.0846C26.9526 19.5746 27.5956 20.1844 28.4745 20.1844C29.3532 20.1844 29.9963 19.5746 30.513 19.0846C30.7519 18.858 30.9776 18.644 31.1819 18.5244C31.3148 18.4466 31.4802 18.3806 31.6619 18.3179L37.8084 24.6094H2.33255L12.7084 13.989ZM33.0832 17.7946C33.4297 17.6108 33.7414 17.3612 33.9569 16.9846C34.3692 16.2639 34.1918 15.4508 34.0353 14.7336C33.9597 14.3866 33.8882 14.0587 33.8882 13.7821C33.8882 13.5055 33.9597 13.1777 34.0353 12.8307C34.1918 12.1134 34.3692 11.3005 33.9568 10.5797C33.5326 9.8381 32.7358 9.58763 32.0328 9.36655L31.9687 9.34634L38.7669 2.38738V23.6122L33.0832 17.7946Z" fill="#015ADE"/>
<path d="M28.4745 10.2424C26.5446 10.2424 24.9746 11.8302 24.9746 13.782C24.9746 15.7337 26.5446 17.3215 28.4745 17.3215C30.4043 17.3215 31.9743 15.7337 31.9743 13.782C31.9743 11.8302 30.4042 10.2424 28.4745 10.2424ZM28.4745 15.9311C27.3028 15.9311 26.3494 14.967 26.3494 13.782C26.3494 12.5969 27.3027 11.6328 28.4745 11.6328C29.6462 11.6328 30.5995 12.5969 30.5995 13.782C30.5995 14.967 29.6462 15.9311 28.4745 15.9311Z" fill="#015ADE"/>
</svg>
