<svg width="23" height="32" viewBox="0 0 23 32" fill="none" xmlns="http://www.w3.org/2000/svg">
<path d="M11.0317 0C4.96645 0 0.0317383 4.78519 0.0317383 10.6667C0.0317383 12.4323 0.48697 14.1829 1.35238 15.7357L10.4302 31.6562C10.551 31.8685 10.7813 32 11.0317 32C11.2821 32 11.5124 31.8685 11.6333 31.6562L20.7144 15.7304C21.5765 14.1829 22.0317 12.4323 22.0317 10.6666C22.0317 4.78519 17.097 0 11.0317 0ZM19.508 15.0905L11.0317 29.9557L2.55888 15.0964C1.8049 13.7435 1.40678 12.2116 1.40678 10.6667C1.40678 5.52019 5.72448 1.33337 11.0317 1.33337C16.339 1.33337 20.6567 5.52025 20.6567 10.6667C20.6567 12.2116 20.2586 13.7435 19.508 15.0905Z" fill="#015ADE"/>
<path d="M11.0317 5.33329C7.99911 5.33329 5.53179 7.72585 5.53179 10.6666C5.53179 13.6074 7.99911 16 11.0317 16C14.0644 16 16.5317 13.6074 16.5317 10.6667C16.5317 7.72592 14.0644 5.33329 11.0317 5.33329ZM11.0317 14.6667C8.75708 14.6667 6.90676 12.8724 6.90676 10.6667C6.90676 8.46092 8.75708 6.66667 11.0317 6.66667C13.3064 6.66667 15.1567 8.46092 15.1567 10.6667C15.1567 12.8724 13.3064 14.6667 11.0317 14.6667Z" fill="#015ADE"/>
</svg>
