<svg width="72" height="64" viewBox="0 0 72 64" fill="none" xmlns="http://www.w3.org/2000/svg">
<g clip-path="url(#clip0_214_37101)">
<path d="M43.86 33.5505H53.33C53.6377 33.5505 53.9327 33.4283 54.1502 33.2107C54.3678 32.9932 54.49 32.6981 54.49 32.3905C54.49 32.0828 54.3678 31.7878 54.1502 31.5702C53.9327 31.3527 53.6377 31.2305 53.33 31.2305H43.86C43.7081 31.2305 43.5578 31.2605 43.4176 31.319C43.2774 31.3774 43.1502 31.463 43.0433 31.5708C42.9364 31.6787 42.8519 31.8066 42.7947 31.9473C42.7375 32.088 42.7087 32.2386 42.71 32.3905C42.7087 32.5423 42.7375 32.693 42.7947 32.8336C42.8519 32.9743 42.9364 33.1023 43.0433 33.2101C43.1502 33.318 43.2774 33.4036 43.4176 33.462C43.5578 33.5204 43.7081 33.5505 43.86 33.5505Z" fill="#151528"/>
<path d="M70.67 42.86C69.9859 41.8721 68.9928 41.1395 67.847 40.7775C66.7012 40.4155 65.4675 40.4445 64.34 40.86L64.01 40.98V6.78999C64.0073 4.98825 63.2897 3.26123 62.0148 1.98814C60.7398 0.715059 59.0117 -1.94825e-06 57.21 0H20.03C18.23 0.00264513 16.5045 0.71887 15.2317 1.99167C13.9589 3.26447 13.2426 4.98999 13.24 6.78999V34.79H1.16C0.852345 34.79 0.557294 34.9122 0.339752 35.1298C0.12221 35.3473 0 35.6423 0 35.95V62.86C0 63.1677 0.12221 63.4627 0.339752 63.6803C0.557294 63.8978 0.852345 64.02 1.16 64.02H17.22C17.5259 64.0174 17.8184 63.894 18.0338 63.6767C18.2492 63.4595 18.37 63.1659 18.37 62.86V61.2H36.37C43.7004 61.1759 50.9269 59.465 57.49 56.2L68.57 50.68C69.2624 50.335 69.873 49.846 70.3611 49.2459C70.8492 48.6457 71.2034 47.9482 71.4 47.2C71.5886 46.4658 71.6211 45.7001 71.4953 44.9526C71.3696 44.205 71.0884 43.4921 70.67 42.86ZM33.02 2.36H44.23V12.14L39.3 8.61C39.1031 8.46913 38.8671 8.39339 38.625 8.39339C38.3829 8.39339 38.1469 8.46913 37.95 8.61L33.02 12.14V2.36ZM16.02 61.73H2.28V37.1H16.02V61.73ZM17.18 34.83H15.52V6.83C15.52 5.64356 15.9906 4.50557 16.8286 3.6657C17.6666 2.82582 18.8036 2.35265 19.99 2.35001H30.67V14.35C30.6747 14.5581 30.7358 14.761 30.8467 14.9371C30.9577 15.1132 31.1143 15.2559 31.3 15.35C31.4885 15.4484 31.7008 15.4921 31.9128 15.4762C32.1249 15.4603 32.3283 15.3854 32.5 15.26L38.58 10.9L44.67 15.26C44.8422 15.3844 45.0455 15.4586 45.2573 15.4745C45.4691 15.4904 45.6812 15.4473 45.87 15.35C46.0557 15.2559 46.2123 15.1132 46.3233 14.9371C46.4342 14.761 46.4953 14.5581 46.5 14.35V2.35001H57.17C58.3574 2.35265 59.4953 2.82549 60.3349 3.66508C61.1745 4.50468 61.6474 5.64264 61.65 6.83V41.86L51.06 46.34L51.15 45.87C51.2212 45.5245 51.258 45.1728 51.26 44.82C51.2574 43.4231 50.7013 42.0842 49.7135 41.0965C48.7258 40.1087 47.3869 39.5526 45.99 39.55H37.77L33.13 37.5C31.0495 36.5742 28.7972 36.0972 26.52 36.1C23.7964 36.1076 21.1144 36.7695 18.7 38.03L18.33 38.22V35.92C18.3252 35.6243 18.2076 35.3416 18.0013 35.1297C17.7949 34.9178 17.5155 34.7927 17.22 34.78L17.18 34.83ZM69.18 46.69C69.0684 47.1197 68.866 47.5205 68.5866 47.8654C68.3072 48.2104 67.9571 48.4916 67.56 48.69L56.48 54.21C50.2354 57.2795 43.3682 58.8706 36.41 58.86H18.41V40.96L18.52 40.89C20.9134 39.2945 23.7236 38.439 26.6 38.43C28.5534 38.4266 30.4855 38.8355 32.27 39.63L37.18 41.81C37.3289 41.8727 37.4884 41.9066 37.65 41.91H46.07C46.8361 41.9406 47.5614 42.2633 48.097 42.8119C48.6326 43.3605 48.9378 44.0934 48.95 44.86C48.95 45.6557 48.6339 46.4187 48.0713 46.9813C47.5087 47.5439 46.7456 47.86 45.95 47.86H33.95C33.6441 47.8626 33.3516 47.986 33.1362 48.2033C32.9208 48.4205 32.8 48.7141 32.8 49.02C32.8026 49.3242 32.9246 49.6152 33.1397 49.8303C33.3548 50.0454 33.6458 50.1674 33.95 50.17H46.3C47.4684 50.1731 48.6252 49.9383 49.7 49.48L64.92 43.05C65.5781 42.7763 66.3101 42.7362 66.9942 42.9363C67.6783 43.1364 68.2732 43.5647 68.68 44.15C68.9356 44.5058 69.1139 44.9111 69.2034 45.34C69.293 45.7688 69.2918 46.2116 69.2 46.64L69.18 46.69Z" fill="#151528"/>
</g>
<defs>
<clipPath id="clip0_214_37101">
<rect width="72" height="64" fill="white"/>
</clipPath>
</defs>
</svg>
