<svg width="52" height="64" viewBox="0 0 52 64" fill="none" xmlns="http://www.w3.org/2000/svg">
<g clip-path="url(#clip0_214_37100)">
<path d="M51.68 10.53C51.6668 10.3793 51.6238 10.2327 51.5534 10.0988C51.483 9.96489 51.3867 9.84632 51.27 9.75002C51.1547 9.65193 51.0211 9.57758 50.8769 9.53125C50.7328 9.48492 50.5809 9.46752 50.43 9.48003C40.43 10.32 32.65 7.35001 26.72 0.390015C26.6077 0.268849 26.4715 0.172198 26.3201 0.106094C26.1687 0.0399905 26.0052 0.00585938 25.84 0.00585938C25.6748 0.00585938 25.5113 0.0399905 25.3599 0.106094C25.2085 0.172198 25.0723 0.268849 24.96 0.390015C18.91 7.46001 11.16 10.44 1.27001 9.49002C1.10922 9.47315 0.946687 9.49037 0.793001 9.54056C0.639316 9.59075 0.497941 9.67278 0.378099 9.7813C0.258258 9.88981 0.162637 10.0224 0.0974903 10.1703C0.0323436 10.3183 -0.000865695 10.4783 1.71512e-05 10.64V29.79C1.71512e-05 43.79 9.48001 56.51 25.35 63.9C25.5039 63.9706 25.6708 64.008 25.84 64.01C26.0063 64.0104 26.1705 63.9728 26.32 63.9C33.6083 60.6396 39.9849 55.64 44.89 49.34C45.1 49.05 45.32 48.76 45.5 48.49C46.9511 46.437 48.1781 44.2344 49.16 41.92C49.5461 41.0098 49.88 40.0783 50.16 39.13C50.8488 36.9891 51.3015 34.7793 51.51 32.54C51.6 31.63 51.64 30.71 51.64 29.79V10.53H51.68ZM49.37 11.85V29.79C49.37 30.63 49.37 31.48 49.25 32.31C49.0594 34.3897 48.6402 36.4421 48 38.43C47.72 39.3 47.4 40.17 47 41.01C46.0759 43.1851 44.9192 45.2538 43.55 47.18C43.37 47.45 43.18 47.71 42.98 47.97C38.4392 53.8115 32.5607 58.4758 25.84 61.57C11.11 54.57 2.31001 42.67 2.31001 29.78V11.88C11.96 12.51 19.66 9.56002 25.84 2.88002C31.91 9.46002 39.61 12.4 49.37 11.87V11.85Z" fill="#151528"/>
<path d="M45.14 14.9909C38.4887 14.7315 32.0988 12.3326 26.92 8.15087L26.75 8.02086L26.6 7.90087C26.3877 7.72874 26.1233 7.63357 25.85 7.63086C25.5764 7.63197 25.3115 7.72732 25.1 7.90087L24.95 8.02086L24.78 8.15087C19.5929 12.3316 13.197 14.7301 6.53999 14.9909C6.23672 15.0115 5.95337 15.1493 5.74993 15.3751C5.54648 15.601 5.43891 15.8971 5.45 16.2009V29.7709C5.45 36.3309 8.08 42.7709 13.06 48.3809C13.0904 48.4551 13.1345 48.523 13.19 48.5809C13.75 49.1909 14.36 49.8109 15.11 50.5209L15.31 50.7109C15.87 51.2409 16.42 51.7109 16.97 52.2009C19.5218 54.3792 22.3171 56.255 25.3 57.7909C25.4677 57.8748 25.6524 57.9193 25.84 57.9209C26.0274 57.9183 26.2119 57.8739 26.38 57.7909C29.3671 56.2528 32.1658 54.3736 34.72 52.1909C35.26 51.7309 35.8 51.2509 36.37 50.7109L36.57 50.5209C37.32 49.8009 37.93 49.1909 38.51 48.5209C38.5509 48.4745 38.5816 48.42 38.6 48.3609C43.6 42.7409 46.23 36.3009 46.23 29.7409V16.1609C46.2356 15.8626 46.125 15.5738 45.9216 15.3555C45.7182 15.1371 45.438 15.0064 45.14 14.9909ZM43.92 17.2909V29.7709C43.92 35.8809 41.48 41.7709 36.92 46.9409L36.81 47.0309C35.1393 48.8645 33.3013 50.5384 31.32 52.0309C29.5907 53.3113 27.7728 54.4675 25.88 55.4909C23.9896 54.4672 22.1719 53.3145 20.44 52.0409C18.4634 50.5426 16.626 48.8692 14.95 47.0409C14.9228 47.0047 14.8888 46.9741 14.85 46.9509C10.23 41.8209 7.8 35.8809 7.8 29.7709V17.3009C14.3997 16.867 20.7088 14.4244 25.88 10.3009C31.0396 14.4179 37.3339 16.8603 43.92 17.3009V17.2909Z" fill="#151528"/>
</g>
<defs>
<clipPath id="clip0_214_37100">
<rect width="52" height="64" fill="white"/>
</clipPath>
</defs>
</svg>
