<svg width="24" height="24" viewBox="0 0 24 24" fill="none" xmlns="http://www.w3.org/2000/svg">
<path d="M16.25 2H7.25C5.85807 2.00149 4.52358 2.55509 3.53933 3.53933C2.55509 4.52358 2.00149 5.85807 2 7.25V16.25C2.00149 17.6419 2.55509 18.9764 3.53933 19.9607C4.52358 20.9449 5.85807 21.4985 7.25 21.5H16.25C17.6419 21.4985 18.9764 20.9449 19.9607 19.9607C20.9449 18.9764 21.4985 17.6419 21.5 16.25V7.25C21.4985 5.85807 20.9449 4.52358 19.9607 3.53933C18.9764 2.55509 17.6419 2.00149 16.25 2ZM11.75 16.25C10.86 16.25 9.98995 15.9861 9.24993 15.4916C8.50991 14.9971 7.93314 14.2943 7.59254 13.4721C7.25195 12.6498 7.16283 11.745 7.33647 10.8721C7.5101 9.99918 7.93868 9.19736 8.56802 8.56802C9.19736 7.93868 9.99918 7.5101 10.8721 7.33647C11.745 7.16283 12.6498 7.25195 13.4721 7.59254C14.2943 7.93314 14.9971 8.50991 15.4916 9.24993C15.9861 9.98995 16.25 10.86 16.25 11.75C16.2488 12.9431 15.7743 14.087 14.9306 14.9306C14.087 15.7743 12.9431 16.2488 11.75 16.25ZM17.375 7.25C17.1525 7.25 16.935 7.18402 16.75 7.0604C16.565 6.93679 16.4208 6.76109 16.3356 6.55552C16.2505 6.34995 16.2282 6.12375 16.2716 5.90552C16.315 5.68729 16.4222 5.48684 16.5795 5.3295C16.7368 5.17217 16.9373 5.06502 17.1555 5.02162C17.3738 4.97821 17.6 5.00049 17.8055 5.08564C18.0111 5.17078 18.1868 5.31498 18.3104 5.49998C18.434 5.68499 18.5 5.9025 18.5 6.125C18.5 6.42337 18.3815 6.70952 18.1705 6.9205C17.9595 7.13147 17.6734 7.25 17.375 7.25ZM14.75 11.75C14.75 12.3433 14.5741 12.9234 14.2444 13.4167C13.9148 13.9101 13.4462 14.2946 12.8981 14.5216C12.3499 14.7487 11.7467 14.8081 11.1647 14.6924C10.5828 14.5766 10.0482 14.2909 9.62868 13.8713C9.20912 13.4518 8.9234 12.9172 8.80764 12.3353C8.69189 11.7533 8.7513 11.1501 8.97836 10.6019C9.20542 10.0538 9.58994 9.58524 10.0833 9.25559C10.5766 8.92595 11.1567 8.75 11.75 8.75C12.5456 8.75 13.3087 9.06607 13.8713 9.62868C14.4339 10.1913 14.75 10.9544 14.75 11.75Z" fill="black"/>
</svg>
