<svg width="43" height="30" viewBox="0 0 43 30" fill="none" xmlns="http://www.w3.org/2000/svg">
<path d="M12.3576 18.786H4.78613V17.1431C4.78613 15.0621 6.49085 13.3574 8.57185 13.3574H12.3576V18.786Z" fill="#015ADE" stroke="white"/>
<path d="M4.28571 23.0714H0.5V17.1429C0.5 12.6833 4.11186 9.07143 8.57143 9.07143H16.6429V19.2857V19.7857H17.1429H24.6857H24.926L25.0761 19.5981L32.5333 10.2766L32.6429 10.1397V9.96428V4.28571V3.78571H32.1429H26.2143V0.5H32.1429C34.2239 0.5 35.9286 2.20471 35.9286 4.28571V11.2889L26.5025 23.0714H17.1429H16.6429V23.5714C16.6429 26.8524 13.9953 29.5 10.7143 29.5C7.43329 29.5 4.78571 26.8524 4.78571 23.5714V23.0714H4.28571ZM8.57143 23.0714H8.07143V23.5714C8.07143 25.0261 9.25957 26.2143 10.7143 26.2143C12.169 26.2143 13.3571 25.0261 13.3571 23.5714V23.0714H12.8571H8.57143ZM12.8571 19.7857H13.3571V19.2857V12.8571V12.3571H12.8571H8.57143C5.93814 12.3571 3.78571 14.5096 3.78571 17.1429V19.2857V19.7857H4.28571H12.8571Z" fill="#015ADE" stroke="white"/>
<path d="M6.92871 2.64258H16.643V5.92829H6.92871V2.64258ZM30.5001 23.5711C30.5001 20.2901 33.1477 17.6426 36.4287 17.6426C39.7097 17.6426 42.3573 20.2901 42.3573 23.5711C42.3573 26.8521 39.7097 29.4997 36.4287 29.4997C33.1477 29.4997 30.5001 26.8521 30.5001 23.5711ZM33.7859 23.5711C33.7859 25.0259 34.974 26.214 36.4287 26.214C37.8834 26.214 39.0716 25.0259 39.0716 23.5711C39.0716 22.1164 37.8834 20.9283 36.4287 20.9283C34.974 20.9283 33.7859 22.1164 33.7859 23.5711Z" fill="#015ADE" stroke="white"/>
</svg>
