<svg width="34" height="30" viewBox="0 0 34 30" fill="none" xmlns="http://www.w3.org/2000/svg">
<path d="M30 26.75H30.5V26.25V3.75V3.25H30H3.75H3.25V3.75V26.25V26.75H3.75H30ZM3.75 0.5H30C31.7864 0.5 33.25 1.96364 33.25 3.75V26.25C33.25 28.0364 31.7864 29.5 30 29.5H3.75C2.88805 29.5 2.0614 29.1576 1.4519 28.5481C0.842409 27.9386 0.5 27.112 0.5 26.25V3.75C0.5 2.88805 0.84241 2.0614 1.4519 1.4519C2.0614 0.84241 2.88805 0.5 3.75 0.5Z" fill="#015ADE" stroke="white"/>
<path d="M12.6875 16.875V16.375H12.1875H8.4375H7.9375V16.875V20.125H6.125V9.875H7.9375V14.0625V14.5625H8.4375H12.1875H12.6875V14.0625V9.875H14.5V20.125H12.6875V16.875ZM22.5312 20.625V20.125H22.0312H20.625C19.8699 20.125 19.25 19.5051 19.25 18.75V11.25C19.25 10.4949 19.8699 9.875 20.625 9.875H26.25C27.0051 9.875 27.625 10.4949 27.625 11.25V18.75C27.625 19.5051 27.0051 20.125 26.25 20.125H24.8438H24.3438V20.625V22.9375H22.5312V20.625Z" fill="#015ADE" stroke="white"/>
<path d="M20.5 11.5C20.5 11.2239 20.7239 11 21 11H26C26.2761 11 26.5 11.2239 26.5 11.5V18.5C26.5 18.7761 26.2761 19 26 19H21C20.7239 19 20.5 18.7761 20.5 18.5V11.5Z" fill="white"/>
</svg>
