<svg width="24" height="30" viewBox="0 0 24 30" fill="none" xmlns="http://www.w3.org/2000/svg">
<path d="M22.6031 13.5766C21.9522 12.1115 21.0059 10.7965 19.8234 9.71384L18.8477 8.81857C18.8146 8.78901 18.7747 8.76803 18.7316 8.75747C18.6884 8.74692 18.6434 8.74711 18.6003 8.75803C18.5573 8.76896 18.5176 8.79028 18.4847 8.82013C18.4518 8.84998 18.4268 8.88744 18.4118 8.92922L17.9759 10.1799C17.7043 10.9645 17.2047 11.7659 16.4972 12.5539C16.4502 12.6042 16.3966 12.6176 16.3597 12.621C16.3228 12.6243 16.2658 12.6176 16.2155 12.5707C16.1686 12.5304 16.1451 12.4701 16.1485 12.4097C16.2725 10.3912 15.669 8.11442 14.3478 5.63649C13.2547 3.5777 11.7358 1.97157 9.83795 0.851643L8.45312 0.0368442C8.27206 -0.0704545 8.0407 0.0703749 8.05075 0.281619L8.12452 1.8911C8.17482 2.99091 8.0474 3.96331 7.74562 4.7714C7.37678 5.76056 6.847 6.6793 6.16967 7.50416C5.69831 8.07742 5.16405 8.59592 4.57696 9.04993C3.16298 10.1369 2.01324 11.5297 1.21382 13.1239C0.416366 14.7321 0.000972934 16.5027 0 18.2977C0 19.8804 0.311837 21.4128 0.928804 22.8579C1.52453 24.2493 2.38424 25.5121 3.46038 26.5765C4.54678 27.6495 5.80754 28.4945 7.21248 29.0813C8.66772 29.6915 10.2101 30 11.8029 30C13.3956 30 14.938 29.6915 16.3932 29.0846C17.7947 28.5013 19.0691 27.6505 20.1453 26.5799C21.2317 25.5069 22.0834 24.2528 22.6769 22.8613C23.2929 21.4201 23.609 19.8685 23.6057 18.3011C23.6057 16.6648 23.2704 15.0754 22.6031 13.5766ZM18.5426 24.9536C16.7419 26.7374 14.3512 27.7166 11.8029 27.7166C9.25451 27.7166 6.86376 26.7374 5.06316 24.9536C3.26926 23.1731 2.2801 20.8125 2.2801 18.3011C2.2801 16.8425 2.6087 15.4443 3.25584 14.1433C3.88622 12.8724 4.82509 11.7358 5.96514 10.8606C6.69221 10.3046 7.35167 9.66543 7.93004 8.95605C8.76831 7.93336 9.42552 6.79331 9.88154 5.56943C10.0686 5.06458 10.2045 4.54224 10.2873 4.01025C11.0954 4.75463 11.7727 5.65326 12.3393 6.70613C13.4593 8.80516 13.9757 10.6728 13.8751 12.2622C13.851 12.6365 13.9122 13.0114 14.0539 13.3587C14.1956 13.706 14.4142 14.0167 14.6932 14.2673C14.935 14.4858 15.2178 14.654 15.5252 14.7622C15.8326 14.8704 16.1584 14.9165 16.4838 14.8977C17.1443 14.8642 17.7512 14.5725 18.1938 14.0796C18.6398 13.58 19.0254 13.0703 19.3473 12.5506C19.8167 13.1508 20.209 13.8046 20.5209 14.5088C21.054 15.7092 21.3256 16.9867 21.3256 18.3011C21.3256 20.8125 20.3365 23.1765 18.5426 24.9536Z" fill="#015ADE"/>
</svg>
