<svg width="28" height="25" viewBox="0 0 28 25" fill="none" xmlns="http://www.w3.org/2000/svg">
<path d="M14.001 4.53557C14.4036 3.69173 14.9521 2.92565 15.6212 2.27266C16.2814 1.60264 17.0742 1.07783 17.9489 0.731778C18.8235 0.385729 19.7608 0.226074 20.7007 0.263031C21.9282 0.308327 23.1251 0.659232 24.1827 1.28396C25.2404 1.90868 26.1254 2.78747 26.7576 3.84067C27.4159 4.88535 27.8286 6.0657 27.9649 7.29294C28.1011 8.52017 27.9573 9.76233 27.5441 10.9259C26.9062 12.848 25.9285 14.64 24.6576 16.2167C22.5457 18.9329 20.12 21.3897 17.431 23.5361C16.4687 24.314 15.2705 24.7418 14.033 24.7492C12.7956 24.7566 11.5923 24.3432 10.6207 23.5769C7.61785 21.2233 4.95883 18.4615 2.72087 15.3716C1.59162 13.8614 0.763304 12.1482 0.281052 10.3252C-0.0771098 9.07375 -0.123078 7.75357 0.147168 6.48022C0.417414 5.20687 0.995635 4.01916 1.83123 3.02104C2.49845 2.16236 3.3533 1.46774 4.33034 0.990359C5.30739 0.512978 6.38071 0.265494 7.46814 0.266857C8.7355 0.257827 9.98141 0.593992 11.0722 1.23929C12.163 1.88458 13.0576 2.81465 13.66 3.92975C13.7681 4.10921 13.8674 4.30266 14.001 4.53557ZM1.72305 8.09921L1.65432 8.11195C1.77396 8.79668 1.84396 9.4954 2.02341 10.1636C2.53244 11.8428 3.34896 13.4128 4.43142 14.7938C6.48116 17.511 8.85688 19.9663 11.5052 22.1043C12.2018 22.6943 13.085 23.0182 13.9979 23.0182C14.9107 23.0182 15.794 22.6943 16.4905 22.1043C18.032 20.8259 19.4965 19.4575 20.8763 18.0061C22.254 16.5895 23.4768 15.0301 24.524 13.3543C25.5391 11.8614 26.1375 10.1246 26.2574 8.32322C26.3293 7.19999 26.0816 6.07936 25.543 5.09103C25.0045 4.1027 24.1971 3.28707 23.2143 2.7385C22.3983 2.199 21.4324 1.93168 20.455 1.97485C19.3684 2.03193 18.3191 2.39074 17.425 3.011C16.5309 3.63126 15.8274 4.48843 15.3934 5.48631C14.9851 6.36921 14.7956 7.33753 14.8411 8.30922C14.8468 8.51648 14.7746 8.71835 14.6385 8.87486C14.5025 9.03136 14.3127 9.13111 14.1067 9.15431C13.9064 9.1819 13.7028 9.13652 13.5332 9.02647C13.3635 8.91642 13.2391 8.74902 13.1827 8.55485C13.1521 8.39042 13.141 8.22297 13.1496 8.05594C13.1675 7.0254 12.9181 6.0078 12.4259 5.10225C11.9336 4.19671 11.2152 3.43409 10.3407 2.88867C9.45979 2.26036 8.39687 1.93886 7.31542 1.97359C5.7743 2.08237 4.33406 2.77973 3.293 3.92125C2.25193 5.06277 1.68981 6.56098 1.72305 8.10558V8.09921Z" fill="black"/>
</svg>
